<?xml version="1.0"?>
<svg version="1.1" xmlns="http://www.w3.org/2000/svg" width="400px" height="53px" style=""><path fill="#80ddd9" d="M59.75,27l0.4,2.8c1.5-1.4,4.15-3.3,7.6-3.3c7.25,0,10.75,5.25,10.75,13c0,8.5-4.25,14.5-13.5,14.5c-1.65,0-3.15-0.3-4.5-0.7l0,7.95l5.25,1l0,2.75l-14.25,0l0-2.75l4-1l0-30.25l-4.25-1l0-2.75z M60.5,34l0,15s1.5,1,5.25,1c5.8,0,7.5-4.5,7.5-10s-2-9.5-6.5-9.5s-6.25,3.5-6.25,3.5z M115.43,50.5l0,2.75l-8.25,0.25l-0.5-3.5c-1.2,1.05-5.15,4-9.25,4c-5.5,0-8-3.45-8-8.95l0-14.05l-4.25-1l0-2.75l9.25-0.25l0,17.55c0,3.5,1.25,5.2,4.5,5.2c4.25,0,7.25-3.95,7.25-3.95l0-14.8l-4.25-1l0-2.75l9.25-0.25l0,22.5z M130.36,27l0.45,3.65c1.25-1.4,4.15-4.15,7.55-4.15c2.5,0,4.5,0.75,4.5,0.75l-0.25,7.25l-3.25,0l-0.75-3.75c-3.75,0-6.15,2.45-7.25,3.9l0,14.85l5,1.25l0,2.75l-14.25,0l0-2.75l4.25-1.25l0-18.5l-4.25-1l0-2.75z M156.54,27l0.4,2.8c1.5-1.4,4.15-3.3,7.6-3.3c7.25,0,10.75,5.25,10.75,13c0,8.5-4.25,14.5-13.5,14.5c-1.65,0-3.15-0.3-4.5-0.7l0,7.95l5.25,1l0,2.75l-14.25,0l0-2.75l4-1l0-30.25l-4.25-1l0-2.75z M157.29,34l0,15s1.5,1,5.25,1c5.8,0,7.5-4.5,7.5-10s-2-9.5-6.5-9.5s-6.25,3.5-6.25,3.5z M196.07,50.75l0,2.75l-13.85,0l0-2.75l4.25-1.25l0-30.5l-4.25-1l0-2.75l9.35-0.25l0,34.5z M224.25,41l-17.25,0c0,5.5,2.95,9,7.25,9c5,0,8.4-2.75,8.4-2.75l1.75,2.6s-4.65,4.15-10.65,4.15c-8,0-12-5.25-12-13.5c0-8,5-14,12.25-14s10.5,4.25,10.5,11.75c0,1.25-0.25,2.65-0.25,2.75z M207.2,37.25l12,0c0-3.75-1.45-6.85-5.45-6.85s-6.25,3.1-6.55,6.85z"/><path fill="#" d=""/></svg>
